# Blender 4.1.0
# www.blender.org
mtllib speed_up.mtl
o Plane
v -0.407758 -0.205579 0.200000
v -0.509339 -0.232118 0.200000
v -0.479139 -0.190022 0.200000
v -0.430637 -0.186361 0.200000
v -0.461751 -0.312651 0.200000
v -0.381219 -0.398674 0.200000
v -0.300687 -0.454497 0.200000
v -0.185379 -0.488358 0.200000
v -0.035296 -0.469140 0.200000
v 0.052558 -0.432534 0.200000
v 0.167866 -0.333699 0.200000
v 0.191659 -0.338274 0.200000
v 0.240162 -0.366644 0.200000
v 0.381093 -0.287027 0.200000
v 0.400311 -0.165313 0.200000
v 0.413123 -0.124132 0.200000
v 0.403057 -0.069223 0.200000
v 0.391160 -0.041769 0.200000
v 0.163290 -0.093932 0.200000
v 0.133090 -0.118641 0.200000
v 0.115703 -0.134198 0.200000
v 0.084588 -0.117726 0.200000
v 0.080927 -0.082035 0.200000
v 0.083673 0.006734 0.200000
v 0.096485 0.095502 0.200000
v 0.129430 0.155901 0.200000
v 0.131260 0.135768 0.200000
v 0.155969 0.181525 0.200000
v 0.163290 0.154986 0.200000
v 0.214538 0.283106 0.200000
v 0.252974 0.339845 0.200000
v 0.287749 0.376450 0.200000
v 0.315203 0.400244 0.200000
v 0.240162 0.485352 0.200000
v 0.122109 0.532024 0.200000
v 0.019613 0.521043 0.200000
v -0.081053 0.514637 0.200000
v -0.148773 0.463389 0.200000
v -0.261335 0.410311 0.200000
v -0.334547 0.292258 0.200000
v -0.333632 0.274870 0.200000
v -0.346444 0.144005 0.200000
v -0.313498 0.180610 0.200000
v -0.303432 0.148580 0.200000
v -0.297941 0.159562 0.200000
v -0.278723 0.124787 0.200000
v -0.254014 0.148580 0.200000
v -0.265911 0.071709 0.200000
v -0.192700 0.138514 0.200000
v -0.164331 0.091842 0.200000
v -0.161585 0.062100 0.200000
v -0.205970 -0.100109 0.200000
v -0.354451 -0.209583 0.200000
v -0.237199 -0.147525 0.200000
v -0.296740 -0.187705 0.200000
v 0.207034 -0.069435 0.200000
v 0.413504 0.127411 0.200000
v 0.547360 0.160657 0.200000
v 0.525488 0.121287 0.200000
v 0.384633 -0.031816 0.200000
v 0.488306 0.039486 0.200000
v 0.513021 0.079512 0.200000
v 0.476058 0.151908 0.200000
v 0.513458 0.162406 0.200000
v 0.364511 0.059609 0.200000
v 0.291896 -0.004913 0.200000
v 0.295833 -0.056750 0.200000
v 0.285974 -0.072225 0.200000
v 0.119546 -0.113179 0.200000
v 0.097674 -0.094807 0.200000
v 0.113422 0.079293 0.200000
v 0.126545 0.105539 0.200000
v 0.133544 0.084542 0.200000
v 0.151042 0.137035 0.200000
v 0.157166 0.100290 0.200000
v 0.234155 0.281389 0.200000
v 0.318143 0.386374 0.200000
v 0.378509 0.451990 0.200000
v 0.328641 0.334756 0.200000
v 0.286647 0.223647 0.200000
v 0.277898 0.174655 0.200000
v 0.342639 0.204400 0.200000
v 0.479994 0.263017 0.200000
v 0.451998 0.203525 0.200000
v 0.393382 0.130911 0.200000
v 0.333890 0.064420 0.200000
v 0.207471 -0.043627 0.200000
v 0.275930 0.006897 0.200000
v 0.299770 0.211399 0.200000
v 0.440625 0.468612 0.200000
v 0.535986 0.522855 0.200000
v 0.515864 0.361003 0.200000
v 0.368448 0.340006 0.200000
v 0.532049 0.442804 0.200000
v 0.491805 0.501858 0.200000
v -0.407758 -0.205579 -0.200000
v -0.509339 -0.232118 -0.200000
v -0.479139 -0.190022 -0.200000
v -0.430637 -0.186361 -0.200000
v -0.461751 -0.312651 -0.200000
v -0.381219 -0.398674 -0.200000
v -0.300687 -0.454497 -0.200000
v -0.185379 -0.488358 -0.200000
v -0.035296 -0.469140 -0.200000
v 0.052558 -0.432534 -0.200000
v 0.167866 -0.333699 -0.200000
v 0.191659 -0.338274 -0.200000
v 0.240162 -0.366644 -0.200000
v 0.381093 -0.287027 -0.200000
v 0.400311 -0.165313 -0.200000
v 0.413123 -0.124132 -0.200000
v 0.403057 -0.069223 -0.200000
v 0.391160 -0.041769 -0.200000
v 0.163290 -0.093932 -0.200000
v 0.133090 -0.118641 -0.200000
v 0.115703 -0.134198 -0.200000
v 0.084588 -0.117726 -0.200000
v 0.080927 -0.082035 -0.200000
v 0.083673 0.006734 -0.200000
v 0.096485 0.095502 -0.200000
v 0.129430 0.155902 -0.200000
v 0.131260 0.135768 -0.200000
v 0.155969 0.181526 -0.200000
v 0.163290 0.154986 -0.200000
v 0.214538 0.283106 -0.200000
v 0.252974 0.339845 -0.200000
v 0.287749 0.376450 -0.200000
v 0.315203 0.400244 -0.200000
v 0.240162 0.485352 -0.200000
v 0.122109 0.532024 -0.200000
v 0.019613 0.521043 -0.200000
v -0.081053 0.514637 -0.200000
v -0.148773 0.463389 -0.200000
v -0.261335 0.410311 -0.200000
v -0.334547 0.292258 -0.200000
v -0.333632 0.274870 -0.200000
v -0.346444 0.144005 -0.200000
v -0.313498 0.180610 -0.200000
v -0.303432 0.148580 -0.200000
v -0.297941 0.159562 -0.200000
v -0.278723 0.124787 -0.200000
v -0.254014 0.148580 -0.200000
v -0.265911 0.071709 -0.200000
v -0.192700 0.138514 -0.200000
v -0.164331 0.091842 -0.200000
v -0.161585 0.062100 -0.200000
v -0.205969 -0.100109 -0.200000
v -0.354451 -0.209583 -0.200000
v -0.237199 -0.147525 -0.200000
v -0.296740 -0.187705 -0.200000
v 0.207034 -0.069435 -0.200000
v 0.413504 0.127411 -0.200000
v 0.547360 0.160657 -0.200000
v 0.525488 0.121287 -0.200000
v 0.384633 -0.031816 -0.200000
v 0.488306 0.039486 -0.200000
v 0.513021 0.079512 -0.200000
v 0.476057 0.151908 -0.200000
v 0.513458 0.162406 -0.200000
v 0.364511 0.059609 -0.200000
v 0.291896 -0.004913 -0.200000
v 0.295833 -0.056750 -0.200000
v 0.285974 -0.072225 -0.200000
v 0.119546 -0.113179 -0.200000
v 0.097674 -0.094807 -0.200000
v 0.113422 0.079293 -0.200000
v 0.126545 0.105540 -0.200000
v 0.133544 0.084543 -0.200000
v 0.151042 0.137035 -0.200000
v 0.157166 0.100290 -0.200000
v 0.234155 0.281389 -0.200000
v 0.318143 0.386374 -0.200000
v 0.378509 0.451990 -0.200000
v 0.328641 0.334757 -0.200000
v 0.286647 0.223648 -0.200000
v 0.277898 0.174655 -0.200000
v 0.342639 0.204400 -0.200000
v 0.479994 0.263017 -0.200000
v 0.451998 0.203525 -0.200000
v 0.393382 0.130911 -0.200000
v 0.333890 0.064420 -0.200000
v 0.207471 -0.043627 -0.200000
v 0.275930 0.006897 -0.200000
v 0.299770 0.211399 -0.200000
v 0.440625 0.468612 -0.200000
v 0.535986 0.522855 -0.200000
v 0.515864 0.361003 -0.200000
v 0.368448 0.340006 -0.200000
v 0.532049 0.442804 -0.200000
v 0.491805 0.501858 -0.200000
vn -0.0000 -0.0000 1.0000
vn -0.0000 -0.0000 -1.0000
vn -0.0753 0.9972 -0.0000
vn -0.8609 -0.5087 -0.0000
vn -0.8125 0.5829 -0.0000
vn 0.6432 0.7657 -0.0000
vn -0.7300 -0.6834 -0.0000
vn -0.5697 -0.8219 -0.0000
vn -0.2818 -0.9595 -0.0000
vn 0.1270 -0.9919 -0.0000
vn 0.3846 -0.9231 -0.0000
vn 0.6508 -0.7593 -0.0000
vn -0.1888 -0.9820 -0.0000
vn -0.5049 -0.8632 -0.0000
vn 0.4919 -0.8707 -0.0000
vn 0.9878 -0.1560 -0.0000
vn 0.9549 -0.2971 -0.0000
vn 0.9836 0.1803 -0.0000
vn 0.9176 0.3976 -0.0000
vn -0.1742 0.9847 -0.0000
vn -0.6332 0.7740 -0.0000
vn -0.6668 0.7452 -0.0000
vn 0.4679 0.8838 -0.0000
vn 0.9948 0.1020 -0.0000
vn 0.9995 -0.0309 -0.0000
vn 0.9897 -0.1429 -0.0000
vn 0.8779 -0.4789 -0.0000
vn -0.9959 -0.0905 -0.0000
vn 0.8799 -0.4751 -0.0000
vn -0.9640 -0.2659 -0.0000
vn 0.9285 -0.3714 -0.0000
vn 0.8279 -0.5608 -0.0000
vn 0.7250 -0.6888 -0.0000
vn 0.6549 -0.7557 -0.0000
vn 0.7501 0.6614 -0.0000
vn 0.3677 0.9300 -0.0000
vn -0.1065 0.9943 -0.0000
vn -0.0635 0.9980 -0.0000
vn -0.6034 0.7974 -0.0000
vn -0.4265 0.9045 -0.0000
vn -0.8498 0.5270 -0.0000
vn -0.9986 -0.0526 -0.0000
vn -0.9952 0.0974 -0.0000
vn 0.7433 -0.6690 -0.0000
vn -0.9540 -0.2998 -0.0000
vn 0.8944 -0.4472 -0.0000
vn -0.8752 -0.4837 -0.0000
vn 0.6936 -0.7203 -0.0000
vn -0.9882 0.1529 -0.0000
vn 0.6741 -0.7387 -0.0000
vn -0.8545 -0.5194 -0.0000
vn -0.9958 -0.0919 -0.0000
vn -0.9645 0.2639 -0.0000
vn -0.8351 0.5500 -0.0000
vn 0.0749 0.9972 -0.0000
vn -0.5594 0.8289 -0.0000
vn -0.3545 0.9351 -0.0000
vn -0.8105 0.5857 -0.0000
vn 0.0515 0.9987 -0.0000
vn 0.8742 -0.4856 -0.0000
vn 0.5667 -0.8239 -0.0000
vn 0.2703 -0.9628 -0.0000
vn 0.8509 -0.5254 -0.0000
vn 0.9582 -0.2860 -0.0000
vn -0.3646 0.9311 -0.0000
vn -0.2703 0.9628 -0.0000
vn -0.6642 0.7475 -0.0000
vn -0.6052 0.7960 -0.0000
vn 0.1414 -0.9899 -0.0000
vn -0.2781 0.9605 -0.0000
vn -0.6432 -0.7657 -0.0000
vn -0.9959 0.0901 -0.0000
vn -0.8944 0.4472 -0.0000
vn 0.9487 0.3162 -0.0000
vn -0.9487 0.3162 -0.0000
vn 0.9864 0.1644 -0.0000
vn -0.9203 0.3912 -0.0000
vn -0.7809 0.6247 -0.0000
vn -0.7359 0.6771 -0.0000
vn 0.9202 -0.3914 -0.0000
vn 0.9354 -0.3535 -0.0000
vn 0.9844 -0.1758 -0.0000
vn -0.4175 0.9087 -0.0000
vn -0.3925 0.9198 -0.0000
vn 0.9048 -0.4258 -0.0000
vn 0.7781 -0.6281 -0.0000
vn 0.7452 -0.6668 -0.0000
vn 0.7044 -0.7098 -0.0000
vn 0.6204 -0.7843 -0.0000
vn 0.5938 -0.8046 -0.0000
vn -0.8721 0.4894 -0.0000
vn -0.4292 0.9032 -0.0000
vn 0.9810 -0.1941 -0.0000
vn 0.5692 -0.8222 -0.0000
vn -0.8821 0.4711 -0.0000
vn 0.9988 -0.0491 -0.0000
vn -0.5447 0.8386 -0.0000
vn 0.9897 -0.1428 -0.0000
vn 0.7250 -0.6887 -0.0000
vn -0.3925 0.9197 -0.0000
vt 0.718479 0.793129
vt 0.750533 0.826871
vt 0.706669 0.927252
vt 0.866449 0.597317
vt 0.821289 0.534819
vt 0.935398 0.516272
vt 0.793064 0.539255
vt 0.847901 0.600543
vt 0.741453 0.640864
vt 0.938623 0.942466
vt 0.891448 0.911822
vt 0.975719 0.888032
vt 0.839837 0.450548
vt 0.739639 0.486233
vt 0.676536 0.439662
vt 0.630167 0.572318
vt 0.960800 0.812632
vt 0.088356 0.308095
vt 0.043649 0.304721
vt 0.015812 0.265918
vt 0.059676 0.191687
vt 0.109445 0.290381
vt 0.133907 0.112394
vt 0.208138 0.060939
vt 0.314424 0.029728
vt 0.452764 0.047442
vt 0.533744 0.081184
vt 0.640030 0.172286
vt 0.661962 0.168068
vt 0.706669 0.141918
vt 0.836574 0.215306
vt 0.854288 0.327497
vt 0.866098 0.365456
vt 0.856819 0.416068
vt 0.845853 0.441374
vt 0.748897 0.413301
vt 0.635812 0.393292
vt 0.607975 0.370517
vt 0.591948 0.356177
vt 0.563268 0.371360
vt 0.559894 0.404258
vt 0.562424 0.486082
vt 0.574234 0.567905
vt 0.604601 0.623578
vt 0.606288 0.605020
vt 0.629064 0.647197
vt 0.635812 0.622735
vt 0.683050 0.740830
vt 0.775839 0.848803
vt 0.597853 0.970272
vt 0.503377 0.960150
vt 0.410587 0.954245
vt 0.348166 0.907007
vt 0.244411 0.858082
vt 0.176928 0.749265
vt 0.177771 0.733238
vt 0.165962 0.612612
vt 0.196329 0.646354
vt 0.205608 0.616830
vt 0.210669 0.626952
vt 0.228383 0.594898
vt 0.251159 0.616830
vt 0.240193 0.545973
vt 0.307676 0.607551
vt 0.333826 0.564531
vt 0.336356 0.537116
vt 0.295445 0.387599
vt 0.266659 0.343893
vt 0.158581 0.286690
vt 0.211776 0.306856
vt 0.989831 0.627961
vt 0.958583 0.629574
vt 0.969671 0.591672
vt 0.757985 0.427565
vt 0.958179 0.553166
vt 0.924108 0.619897
vt 0.754356 0.475346
vt 0.676133 0.415872
vt 0.575330 0.392486
vt 0.595491 0.375551
vt 0.589846 0.552964
vt 0.601942 0.577157
vt 0.608394 0.557802
vt 0.624522 0.606188
vt 0.701132 0.739247
vt 0.778549 0.836018
vt 0.834192 0.896500
vt 0.788226 0.788439
vt 0.749517 0.686024
vt 0.801129 0.668282
vt 0.927737 0.722312
vt 0.901931 0.667476
vt 0.824918 0.793278
vt 0.979348 0.961820
vt 0.761614 0.674734
s 0
f 31/1/1 32/2/1 34/3/1
f 57/4/1 65/5/1 61/6/1
f 86/7/1 85/8/1 81/9/1
f 95/10/1 90/11/1 94/12/1
f 127/2/2 126/1/2 129/3/2
f 156/6/2 155/13/2 160/5/2
f 183/14/2 182/15/2 170/16/2
f 189/12/2 187/17/2 185/11/2
f 4/18/3 98/19/3 3/19/3
f 2/20/4 100/21/4 5/21/4
f 3/19/5 97/20/5 2/20/5
f 1/22/6 99/18/6 4/18/6
f 6/23/7 100/21/7 101/23/7
f 6/23/8 102/24/8 7/24/8
f 7/24/9 103/25/9 8/25/9
f 8/25/10 104/26/10 9/26/10
f 10/27/11 104/26/11 105/27/11
f 10/27/12 106/28/12 11/28/12
f 11/28/13 107/29/13 12/29/13
f 12/29/14 108/30/14 13/30/14
f 14/31/15 108/30/15 109/31/15
f 14/31/16 110/32/16 15/32/16
f 15/32/17 111/33/17 16/33/17
f 16/33/18 112/34/18 17/34/18
f 17/34/19 113/35/19 18/35/19
f 68/36/20 114/37/20 19/37/20
f 19/37/21 115/38/21 20/38/21
f 20/38/22 116/39/22 21/39/22
f 21/39/23 117/40/23 22/40/23
f 22/40/24 118/41/24 23/41/24
f 23/41/25 119/42/25 24/42/25
f 24/42/26 120/43/26 25/43/26
f 25/43/27 121/44/27 26/44/27
f 26/44/28 122/45/28 27/45/28
f 27/45/29 123/46/29 28/46/29
f 28/46/30 124/47/30 29/47/30
f 30/48/31 124/47/31 125/48/31
f 30/48/32 126/1/32 31/1/32
f 31/1/33 127/2/33 32/2/33
f 32/2/34 128/49/34 33/49/34
f 33/49/35 129/3/35 34/3/35
f 34/3/36 130/50/36 35/50/36
f 35/50/37 131/51/37 36/51/37
f 36/51/38 132/52/38 37/52/38
f 37/52/39 133/53/39 38/53/39
f 38/53/40 134/54/40 39/54/40
f 39/54/41 135/55/41 40/55/41
f 40/55/42 136/56/42 41/56/42
f 41/56/43 137/57/43 42/57/43
f 42/57/44 138/58/44 43/58/44
f 43/58/45 139/59/45 44/59/45
f 44/59/46 140/60/46 45/60/46
f 45/60/47 141/61/47 46/61/47
f 46/61/48 142/62/48 47/62/48
f 48/63/49 142/62/49 143/63/49
f 48/63/50 144/64/50 49/64/50
f 49/64/51 145/65/51 50/65/51
f 50/65/52 146/66/52 51/66/52
f 51/66/53 147/67/53 52/67/53
f 52/67/54 149/68/54 54/68/54
f 53/69/55 96/22/55 1/22/55
f 54/68/56 150/70/56 55/70/56
f 55/70/57 148/69/57 53/69/57
f 65/5/58 152/4/58 160/5/58
f 58/71/59 159/72/59 64/72/59
f 59/73/60 153/71/60 58/71/60
f 60/13/61 156/6/61 61/6/61
f 67/74/62 155/13/62 60/13/62
f 61/6/63 157/75/63 62/75/63
f 62/75/64 154/73/64 59/73/64
f 63/76/65 152/4/65 57/4/65
f 64/72/66 158/76/66 63/76/66
f 65/5/67 161/77/67 66/77/67
f 66/77/68 151/78/68 56/78/68
f 56/78/69 162/74/69 67/74/69
f 68/36/70 113/35/70 163/36/70
f 70/79/71 164/80/71 69/80/71
f 71/81/72 165/79/72 70/79/72
f 72/82/73 166/81/73 71/81/73
f 73/83/74 167/82/74 72/82/74
f 74/84/75 168/83/75 73/83/75
f 75/16/76 169/84/76 74/84/76
f 76/85/77 170/16/77 75/16/77
f 76/85/78 172/86/78 171/85/78
f 78/87/79 172/86/79 77/86/79
f 79/88/80 173/87/80 78/87/80
f 80/89/81 174/88/81 79/88/81
f 81/9/82 175/89/82 80/89/82
f 82/90/83 176/9/83 81/9/83
f 83/91/84 177/90/84 82/90/84
f 84/92/85 178/91/85 83/91/85
f 84/92/86 180/8/86 179/92/86
f 86/7/87 180/8/87 85/8/87
f 88/14/88 181/7/88 86/7/88
f 69/80/89 182/15/89 87/15/89
f 87/15/90 183/14/90 88/14/90
f 90/11/91 188/93/91 93/93/91
f 91/94/92 190/10/92 95/10/92
f 92/17/93 189/12/93 94/12/93
f 89/95/94 187/17/94 92/17/94
f 93/93/95 184/95/95 89/95/95
f 94/12/96 186/94/96 91/94/96
f 95/10/97 185/11/97 90/11/97
f 1/22/1 4/18/1 3/19/1
f 3/19/1 2/20/1 1/22/1
f 2/20/1 5/21/1 1/22/1
f 5/21/1 6/23/1 53/69/1
f 6/23/1 7/24/1 55/70/1
f 53/69/1 6/23/1 55/70/1
f 7/24/1 8/25/1 55/70/1
f 8/25/1 9/26/1 54/68/1
f 55/70/1 8/25/1 54/68/1
f 9/26/1 10/27/1 54/68/1
f 10/27/1 11/28/1 22/40/1
f 22/40/1 11/28/1 21/39/1
f 12/29/1 13/30/1 14/31/1
f 11/28/1 12/29/1 21/39/1
f 12/29/1 14/31/1 68/36/1
f 15/32/1 16/33/1 68/36/1
f 16/33/1 17/34/1 68/36/1
f 12/29/1 68/36/1 19/37/1
f 14/31/1 15/32/1 68/36/1
f 53/69/1 1/22/1 5/21/1
f 17/34/1 18/35/1 68/36/1
f 19/37/1 20/38/1 12/29/1
f 12/29/1 20/38/1 21/39/1
f 54/68/1 10/27/1 22/40/1
f 52/67/1 54/68/1 22/40/1
f 52/67/1 22/40/1 23/41/1
f 51/66/1 52/67/1 23/41/1
f 51/66/1 23/41/1 24/42/1
f 50/65/1 51/66/1 25/43/1
f 51/66/1 24/42/1 25/43/1
f 47/62/1 48/63/1 49/64/1
f 49/64/1 50/65/1 25/43/1
f 26/44/1 27/45/1 28/46/1
f 49/64/1 25/43/1 26/44/1
f 45/60/1 46/61/1 47/62/1
f 47/62/1 49/64/1 41/56/1
f 49/64/1 26/44/1 38/53/1
f 28/46/1 29/47/1 30/48/1
f 49/64/1 38/53/1 39/54/1
f 26/44/1 28/46/1 36/51/1
f 38/53/1 26/44/1 36/51/1
f 43/58/1 44/59/1 45/60/1
f 45/60/1 47/62/1 43/58/1
f 49/64/1 39/54/1 41/56/1
f 28/46/1 30/48/1 36/51/1
f 41/56/1 42/57/1 43/58/1
f 43/58/1 47/62/1 41/56/1
f 30/48/1 31/1/1 35/50/1
f 40/55/1 41/56/1 39/54/1
f 36/51/1 37/52/1 38/53/1
f 34/3/1 35/50/1 31/1/1
f 35/50/1 36/51/1 30/48/1
f 32/2/1 33/49/1 34/3/1
f 66/77/1 56/78/1 67/74/1
f 67/74/1 60/13/1 66/77/1
f 60/13/1 61/6/1 65/5/1
f 61/6/1 62/75/1 57/4/1
f 62/75/1 59/73/1 63/76/1
f 59/73/1 58/71/1 64/72/1
f 64/72/1 63/76/1 59/73/1
f 63/76/1 57/4/1 62/75/1
f 65/5/1 66/77/1 60/13/1
f 71/81/1 70/79/1 87/15/1
f 70/79/1 69/80/1 87/15/1
f 87/15/1 88/14/1 75/16/1
f 88/14/1 86/7/1 81/9/1
f 87/15/1 75/16/1 73/83/1
f 73/83/1 72/82/1 71/81/1
f 75/16/1 74/84/1 73/83/1
f 77/86/1 76/85/1 79/88/1
f 76/85/1 75/16/1 81/9/1
f 80/89/1 76/85/1 81/9/1
f 79/88/1 78/87/1 77/86/1
f 80/89/1 79/88/1 76/85/1
f 83/91/1 82/90/1 84/92/1
f 82/90/1 81/9/1 85/8/1
f 84/92/1 82/90/1 85/8/1
f 73/83/1 71/81/1 87/15/1
f 81/9/1 75/16/1 88/14/1
f 90/11/1 93/93/1 92/17/1
f 93/93/1 89/95/1 92/17/1
f 92/17/1 94/12/1 90/11/1
f 94/12/1 91/94/1 95/10/1
f 98/19/2 99/18/2 96/22/2
f 97/20/2 98/19/2 96/22/2
f 101/23/2 100/21/2 148/69/2
f 100/21/2 97/20/2 96/22/2
f 148/69/2 100/21/2 96/22/2
f 103/25/2 102/24/2 150/70/2
f 102/24/2 101/23/2 150/70/2
f 150/70/2 101/23/2 148/69/2
f 105/27/2 104/26/2 149/68/2
f 104/26/2 103/25/2 149/68/2
f 149/68/2 103/25/2 150/70/2
f 106/28/2 105/27/2 117/40/2
f 109/31/2 108/30/2 107/29/2
f 107/29/2 106/28/2 116/39/2
f 105/27/2 149/68/2 117/40/2
f 106/28/2 117/40/2 116/39/2
f 110/32/2 109/31/2 163/36/2
f 109/31/2 107/29/2 163/36/2
f 112/34/2 111/33/2 163/36/2
f 111/33/2 110/32/2 163/36/2
f 163/36/2 113/35/2 112/34/2
f 115/38/2 114/37/2 107/29/2
f 114/37/2 163/36/2 107/29/2
f 116/39/2 115/38/2 107/29/2
f 149/68/2 147/67/2 117/40/2
f 118/41/2 117/40/2 147/67/2
f 118/41/2 147/67/2 146/66/2
f 119/42/2 118/41/2 146/66/2
f 119/42/2 146/66/2 120/43/2
f 146/66/2 145/65/2 120/43/2
f 144/64/2 143/63/2 142/62/2
f 120/43/2 145/65/2 144/64/2
f 123/46/2 122/45/2 121/44/2
f 121/44/2 120/43/2 144/64/2
f 142/62/2 141/61/2 140/60/2
f 121/44/2 144/64/2 133/53/2
f 144/64/2 142/62/2 136/56/2
f 133/53/2 144/64/2 134/54/2
f 125/48/2 124/47/2 123/46/2
f 123/46/2 121/44/2 131/51/2
f 140/60/2 139/59/2 138/58/2
f 121/44/2 133/53/2 131/51/2
f 142/62/2 140/60/2 138/58/2
f 125/48/2 123/46/2 131/51/2
f 134/54/2 144/64/2 136/56/2
f 138/58/2 137/57/2 136/56/2
f 142/62/2 138/58/2 136/56/2
f 126/1/2 125/48/2 130/50/2
f 136/56/2 135/55/2 134/54/2
f 133/53/2 132/52/2 131/51/2
f 131/51/2 130/50/2 125/48/2
f 130/50/2 129/3/2 126/1/2
f 129/3/2 128/49/2 127/2/2
f 160/5/2 152/4/2 156/6/2
f 152/4/2 158/76/2 157/75/2
f 156/6/2 152/4/2 157/75/2
f 158/76/2 159/72/2 154/73/2
f 159/72/2 153/71/2 154/73/2
f 154/73/2 157/75/2 158/76/2
f 161/77/2 160/5/2 155/13/2
f 161/77/2 155/13/2 162/74/2
f 162/74/2 151/78/2 161/77/2
f 164/80/2 165/79/2 182/15/2
f 165/79/2 166/81/2 182/15/2
f 166/81/2 167/82/2 168/83/2
f 168/83/2 169/84/2 170/16/2
f 170/16/2 171/85/2 176/9/2
f 171/85/2 172/86/2 174/88/2
f 175/89/2 171/85/2 174/88/2
f 172/86/2 173/87/2 174/88/2
f 171/85/2 175/89/2 176/9/2
f 176/9/2 177/90/2 180/8/2
f 177/90/2 178/91/2 179/92/2
f 166/81/2 168/83/2 182/15/2
f 168/83/2 170/16/2 182/15/2
f 170/16/2 176/9/2 183/14/2
f 183/14/2 176/9/2 181/7/2
f 177/90/2 179/92/2 180/8/2
f 180/8/2 181/7/2 176/9/2
f 184/95/2 188/93/2 187/17/2
f 188/93/2 185/11/2 187/17/2
f 185/11/2 190/10/2 189/12/2
f 190/10/2 186/94/2 189/12/2
f 4/18/3 99/18/3 98/19/3
f 2/20/4 97/20/4 100/21/4
f 3/19/5 98/19/5 97/20/5
f 1/22/6 96/22/6 99/18/6
f 6/23/7 5/21/7 100/21/7
f 6/23/8 101/23/8 102/24/8
f 7/24/9 102/24/9 103/25/9
f 8/25/10 103/25/10 104/26/10
f 10/27/11 9/26/11 104/26/11
f 10/27/12 105/27/12 106/28/12
f 11/28/13 106/28/13 107/29/13
f 12/29/14 107/29/14 108/30/14
f 14/31/15 13/30/15 108/30/15
f 14/31/16 109/31/16 110/32/16
f 15/32/17 110/32/17 111/33/17
f 16/33/18 111/33/18 112/34/18
f 17/34/19 112/34/19 113/35/19
f 68/36/20 163/36/20 114/37/20
f 19/37/21 114/37/21 115/38/21
f 20/38/22 115/38/22 116/39/22
f 21/39/23 116/39/23 117/40/23
f 22/40/24 117/40/24 118/41/24
f 23/41/25 118/41/25 119/42/25
f 24/42/98 119/42/98 120/43/98
f 25/43/27 120/43/27 121/44/27
f 26/44/28 121/44/28 122/45/28
f 27/45/29 122/45/29 123/46/29
f 28/46/30 123/46/30 124/47/30
f 30/48/31 29/47/31 124/47/31
f 30/48/32 125/48/32 126/1/32
f 31/1/99 126/1/99 127/2/99
f 32/2/34 127/2/34 128/49/34
f 33/49/35 128/49/35 129/3/35
f 34/3/36 129/3/36 130/50/36
f 35/50/37 130/50/37 131/51/37
f 36/51/38 131/51/38 132/52/38
f 37/52/39 132/52/39 133/53/39
f 38/53/40 133/53/40 134/54/40
f 39/54/41 134/54/41 135/55/41
f 40/55/42 135/55/42 136/56/42
f 41/56/43 136/56/43 137/57/43
f 42/57/44 137/57/44 138/58/44
f 43/58/45 138/58/45 139/59/45
f 44/59/46 139/59/46 140/60/46
f 45/60/47 140/60/47 141/61/47
f 46/61/48 141/61/48 142/62/48
f 48/63/49 47/62/49 142/62/49
f 48/63/50 143/63/50 144/64/50
f 49/64/51 144/64/51 145/65/51
f 50/65/52 145/65/52 146/66/52
f 51/66/53 146/66/53 147/67/53
f 52/67/54 147/67/54 149/68/54
f 53/69/55 148/69/55 96/22/55
f 54/68/56 149/68/56 150/70/56
f 55/70/57 150/70/57 148/69/57
f 65/5/58 57/4/58 152/4/58
f 58/71/59 153/71/59 159/72/59
f 59/73/60 154/73/60 153/71/60
f 60/13/61 155/13/61 156/6/61
f 67/74/62 162/74/62 155/13/62
f 61/6/63 156/6/63 157/75/63
f 62/75/64 157/75/64 154/73/64
f 63/76/65 158/76/65 152/4/65
f 64/72/66 159/72/66 158/76/66
f 65/5/67 160/5/67 161/77/67
f 66/77/68 161/77/68 151/78/68
f 56/78/69 151/78/69 162/74/69
f 68/36/70 18/35/70 113/35/70
f 70/79/71 165/79/71 164/80/71
f 71/81/72 166/81/72 165/79/72
f 72/82/73 167/82/73 166/81/73
f 73/83/74 168/83/74 167/82/74
f 74/84/75 169/84/75 168/83/75
f 75/16/76 170/16/76 169/84/76
f 76/85/77 171/85/77 170/16/77
f 76/85/78 77/86/78 172/86/78
f 78/87/79 173/87/79 172/86/79
f 79/88/80 174/88/80 173/87/80
f 80/89/81 175/89/81 174/88/81
f 81/9/82 176/9/82 175/89/82
f 82/90/83 177/90/83 176/9/83
f 83/91/100 178/91/100 177/90/100
f 84/92/85 179/92/85 178/91/85
f 84/92/86 85/8/86 180/8/86
f 86/7/87 181/7/87 180/8/87
f 88/14/88 183/14/88 181/7/88
f 69/80/89 164/80/89 182/15/89
f 87/15/90 182/15/90 183/14/90
f 90/11/91 185/11/91 188/93/91
f 91/94/92 186/94/92 190/10/92
f 92/17/93 187/17/93 189/12/93
f 89/95/94 184/95/94 187/17/94
f 93/93/95 188/93/95 184/95/95
f 94/12/96 189/12/96 186/94/96
f 95/10/97 190/10/97 185/11/97
